<svg width="216" height="123" viewBox="0 0 216 123" fill="none" xmlns="http://www.w3.org/2000/svg">
<rect x="199.615" y="67.951" width="10" height="186" transform="rotate(106.002 199.615 67.951)" fill="white"/>
<rect x="198.528" y="93.8897" width="10" height="186" transform="rotate(106.002 198.528 93.8897)" fill="white"/>
<path d="M38.6 57.08C38.6 56.76 38.8133 56.6 39.24 56.6C39.6667 56.6 40.9867 56.8933 43.2 57.48C43.7067 53.1067 45.1333 48.36 47.48 43.24C48.3067 41.3733 49.2933 40.44 50.44 40.44C50.6533 40.44 50.8533 40.6667 51.04 41.12C51.2533 41.5733 51.36 42.1333 51.36 42.8C51.36 43.6 50.9333 45.8 50.08 49.4C49.2533 53 48.7067 56.1333 48.44 58.8C50.2 59.2 51.7467 59.4 53.08 59.4C54.44 59.4 55.68 59.0533 56.8 58.36C57.92 57.64 58.88 56.72 59.68 55.6C61.3333 53.2267 62.16 50.3733 62.16 47.04C62.1333 40.88 59.68 37.8 54.8 37.8C53.0667 37.8267 50 38.6 45.6 40.12C44.7467 40.4133 44 40.56 43.36 40.56C42.72 40.56 42.4 40.3733 42.4 40C42.4 39.4933 42.7733 38.8933 43.52 38.2C44.2667 37.5067 45.2267 36.84 46.4 36.2C49.28 34.6533 52.08 33.88 54.8 33.88C58.5333 33.88 61.6 34.88 64 36.88C66.8267 39.2533 68.2267 42.8533 68.2 47.68C68.2 49.7333 67.88 51.76 67.24 53.76C66.6 55.76 65.6267 57.5467 64.32 59.12C63.0133 60.6667 61.36 61.92 59.36 62.88C57.36 63.84 55 64.32 52.28 64.32C51.1867 64.32 49.8 64.08 48.12 63.6C47.9333 64.1067 47.4667 64.36 46.72 64.36C45.3333 64.36 44.3867 64.1333 43.88 63.68C43.4 63.2 43.12 62.4267 43.04 61.36C41.76 60.64 40.6933 59.8933 39.84 59.12C39.0133 58.3467 38.6 57.6667 38.6 57.08ZM79.3013 59.64C81.3813 59.64 83.3946 58.8133 85.3413 57.16C86.0613 56.5467 86.6479 55.9867 87.1013 55.48C87.5546 54.9467 87.9013 54.68 88.1413 54.68C88.5146 54.68 88.7013 55.0533 88.7013 55.8C88.7013 56.5467 88.5013 57.3867 88.1013 58.32C87.7013 59.2267 87.0346 60.12 86.1013 61C83.8079 63.16 80.6613 64.24 76.6613 64.24C73.4879 64.24 71.3279 63.0933 70.1813 60.8C69.7813 60 69.5813 58.8533 69.5813 57.36C69.5813 55.8667 69.8746 54.32 70.4613 52.72C71.0479 51.0933 71.8213 49.6933 72.7813 48.52C73.7679 47.3467 74.9013 46.44 76.1813 45.8C77.4613 45.1333 78.8213 44.8 80.2613 44.8C81.7279 44.8 82.8479 45.16 83.6213 45.88C84.4213 46.6 84.8213 47.5333 84.8213 48.68C84.8213 49.8267 84.5279 50.7733 83.9413 51.52C83.3813 52.24 82.6479 52.8533 81.7413 53.36C80.8346 53.84 79.8213 54.28 78.7013 54.68C77.6079 55.0533 76.5279 55.48 75.4613 55.96V56.96C75.4879 57.92 75.8879 58.6 76.6613 59C77.4346 59.4 78.3146 59.6133 79.3013 59.64ZM78.6213 48.36C77.2346 48.36 76.2746 49.9733 75.7413 53.2C76.3013 52.8267 76.8213 52.4933 77.3013 52.2C77.8079 51.9067 78.2479 51.6267 78.6213 51.36C79.4213 50.7733 79.8346 50.1067 79.8613 49.36C79.8613 48.6933 79.4479 48.36 78.6213 48.36ZM92.54 57.28L92.78 62.16C92.78 62.8 92.4467 63.3733 91.78 63.88C91.1133 64.3867 90.2067 64.64 89.06 64.64C88.3933 64.64 87.9267 64.2933 87.66 63.6C87.42 62.9067 87.3 61.8933 87.3 60.56C87.3 57.76 87.4333 55.5733 87.7 54C87.9933 52.4 88.5533 50.7867 89.38 49.16C88.1533 47.9867 87.54 46.9733 87.54 46.12C87.54 44.3333 88.5 43.44 90.42 43.44C91.4067 43.44 92.2733 43.96 93.02 45C93.5533 45.72 93.94 46.56 94.18 47.52C94.5533 47.6533 95.02 47.72 95.58 47.72C96.3533 47.72 97.2467 47.4667 98.26 46.96L99.3 46.44C99.62 46.28 99.9 46.2 100.14 46.2C100.913 46.2 101.687 47.3333 102.46 49.6C102.22 50.64 101.953 51.64 101.66 52.6C101.393 53.56 101.073 54.72 100.7 56.08C100.327 57.44 100.127 58.36 100.1 58.84C100.1 59.2933 100.247 59.52 100.54 59.52C100.94 59.52 101.433 59.2667 102.02 58.76C102.607 58.2533 103.193 57.7067 103.78 57.12C104.367 56.5067 104.9 55.9467 105.38 55.44C105.887 54.9333 106.233 54.68 106.42 54.68C106.793 54.68 106.98 55.1333 106.98 56.04C106.98 57.88 106.167 59.6933 104.54 61.48C102.94 63.2667 101.1 64.1467 99.02 64.12C97.7933 64.12 96.8733 63.6267 96.26 62.64C95.6467 61.6533 95.3267 60.4533 95.3 59.04C95.3 56.24 95.9267 53.5867 97.18 51.08C96.5933 51.32 95.9267 51.44 95.18 51.44C94.46 51.44 93.94 51.4133 93.62 51.36C93.38 52.3733 93.14 53.4 92.9 54.44C92.66 55.4533 92.54 56.4 92.54 57.28ZM116.741 46.6C119.888 46.6 121.461 47.1733 121.461 48.32C121.461 48.96 121.235 50.0133 120.781 51.48C118.381 55.4533 115.955 58.2667 113.501 59.92C114.675 60.2133 115.795 60.36 116.861 60.36C117.928 60.36 118.915 60.0667 119.821 59.48C120.755 58.8933 121.568 58.24 122.261 57.52C122.955 56.8 123.528 56.1467 123.981 55.56C124.461 54.9733 124.848 54.68 125.141 54.68C125.515 54.68 125.701 55.1867 125.701 56.2C125.701 57.2133 125.408 58.2267 124.821 59.24C124.235 60.2267 123.421 61.1067 122.381 61.88C120.088 63.5867 117.328 64.44 114.101 64.44C112.795 64.44 111.661 64.28 110.701 63.96C109.741 63.6133 109.048 63.2933 108.621 63C108.221 62.7067 108.021 62.3067 108.021 61.8C108.021 61.2667 108.115 60.5733 108.301 59.72C108.701 59.16 109.341 58.5467 110.221 57.88C111.128 57.2133 112.021 56.52 112.901 55.8C113.808 55.08 114.595 54.36 115.261 53.64C115.955 52.92 116.301 52.2133 116.301 51.52C116.301 51.2533 115.675 51.12 114.421 51.12L107.821 51.48C107.128 51.48 106.608 51.28 106.261 50.88C105.941 50.4533 105.781 49.9733 105.781 49.44C105.781 48.2133 106.235 47.1333 107.141 46.2C108.075 45.2667 109.288 44.7867 110.781 44.76C111.421 44.76 112.181 44.9733 113.061 45.4C113.941 45.8267 114.635 46.1333 115.141 46.32C115.675 46.5067 116.208 46.6 116.741 46.6ZM139.852 60.6C137.746 63.08 135.212 64.32 132.252 64.32C129.319 64.32 127.119 63.5733 125.652 62.08C124.186 60.56 123.466 58.68 123.492 56.44C123.466 53.2667 124.466 50.5333 126.492 48.24C128.519 45.9467 131.172 44.8 134.452 44.8C135.946 44.8 137.146 44.9867 138.052 45.36C139.626 46 140.412 46.6 140.412 47.16C140.412 47.5867 139.306 47.8133 137.092 47.84C134.906 47.84 133.066 48.6 131.572 50.12C130.106 51.6133 129.372 53.5067 129.372 55.8C129.372 57 129.719 58.0133 130.412 58.84C131.132 59.64 132.132 60.04 133.412 60.04C134.719 60.04 135.799 59.7733 136.652 59.24C134.759 57.96 133.812 56.1067 133.812 53.68C133.786 52.4 134.239 51.24 135.172 50.2C136.132 49.1333 137.346 48.6 138.812 48.6C140.306 48.5733 141.372 48.9733 142.012 49.8C142.652 50.6267 142.972 51.6933 142.972 53C142.972 54.28 142.666 55.64 142.052 57.08H142.292C143.466 57.0533 144.479 56.64 145.332 55.84C145.652 55.52 145.919 55.24 146.132 55C146.372 54.76 146.612 54.64 146.852 54.64C147.226 54.64 147.412 55.08 147.412 55.96C147.412 57.5867 146.932 58.8133 145.972 59.64C145.012 60.44 143.946 60.84 142.772 60.84C141.626 60.84 140.652 60.76 139.852 60.6ZM139.492 55.96C139.946 55 140.172 54.0667 140.172 53.16C140.172 52.2533 139.879 51.8 139.292 51.8C139.052 51.8 138.852 51.9733 138.692 52.32C138.532 52.6667 138.452 53 138.452 53.32C138.452 54.3867 138.799 55.2667 139.492 55.96ZM161.571 60.6C159.464 63.08 156.931 64.32 153.971 64.32C151.038 64.32 148.838 63.5733 147.371 62.08C145.904 60.56 145.184 58.68 145.211 56.44C145.184 53.2667 146.184 50.5333 148.211 48.24C150.238 45.9467 152.891 44.8 156.171 44.8C157.664 44.8 158.864 44.9867 159.771 45.36C161.344 46 162.131 46.6 162.131 47.16C162.131 47.5867 161.024 47.8133 158.811 47.84C156.624 47.84 154.784 48.6 153.291 50.12C151.824 51.6133 151.091 53.5067 151.091 55.8C151.091 57 151.438 58.0133 152.131 58.84C152.851 59.64 153.851 60.04 155.131 60.04C156.438 60.04 157.518 59.7733 158.371 59.24C156.478 57.96 155.531 56.1067 155.531 53.68C155.504 52.4 155.958 51.24 156.891 50.2C157.851 49.1333 159.064 48.6 160.531 48.6C162.024 48.5733 163.091 48.9733 163.731 49.8C164.371 50.6267 164.691 51.6933 164.691 53C164.691 54.28 164.384 55.64 163.771 57.08H164.011C165.184 57.0533 166.198 56.64 167.051 55.84C167.371 55.52 167.638 55.24 167.851 55C168.091 54.76 168.331 54.64 168.571 54.64C168.944 54.64 169.131 55.08 169.131 55.96C169.131 57.5867 168.651 58.8133 167.691 59.64C166.731 60.44 165.664 60.84 164.491 60.84C163.344 60.84 162.371 60.76 161.571 60.6ZM161.211 55.96C161.664 55 161.891 54.0667 161.891 53.16C161.891 52.2533 161.598 51.8 161.011 51.8C160.771 51.8 160.571 51.9733 160.411 52.32C160.251 52.6667 160.171 53 160.171 53.32C160.171 54.3867 160.518 55.2667 161.211 55.96Z" fill="#3A2F2F"/>
</svg>
